<svg xmlns="http://www.w3.org/2000/svg" viewBox="0 0 128 128"><path d="M128 83.8l-5.2-8.8-14.5 8.2-16.9-9.7v-19.2l17.1-9.7 14 7.9 5.2-8.8-14.1-8v-16.2h-10.4v16.4l-17.2 9.6-16.9-9.5v-19.2l14-8-5.1-8.8-14 8-14-8-5.2 8.8 14 8v19.2l-16.9 9.7-17-9.7v-16.5h-10.4v16.4l-14.5 8.2 5.2 8.8 14.5-8.2 16.9 9.7v19.2l-17.1 9.7-14-7.9-5.2 8.8 14.1 8v16.4h10.4v-16.5l17.2-9.6 16.9 9.5v19.2l-14 8 5.2 8.8 14-8 14 8 5.2-8.8-14-8v-19.2l16.9-9.7 16.9 9.7v16.5h10.4v-16.5l14.5-8.2zm-81.2-10.2v-19.2l17.1-9.7 17.1 9.7v19.1l-17.1 9.7-17.1-9.6z"/></svg>